<?xml version="1.0" standalone="no"?>
<!DOCTYPE svg PUBLIC "-//W3C//DTD SVG 20010904//EN"
 "http://www.w3.org/TR/2001/REC-SVG-20010904/DTD/svg10.dtd">
<svg version="1.0" xmlns="http://www.w3.org/2000/svg"
 width="512.000000pt" height="512.000000pt" viewBox="0 0 512.000000 512.000000"
 preserveAspectRatio="xMidYMid meet">
<metadata>
Created by potrace 1.11, written by Peter Selinger 2001-2013
</metadata>
<g transform="translate(0.000000,512.000000) scale(0.100000,-0.100000)"
fill="#000000" stroke="none">
<path d="M300 2560 l0 -2260 2260 0 2260 0 0 2260 0 2260 -2260 0 -2260 0 0
-2260z m1350 120 l0 -1409 133 -3 132 -3 3 -27 3 -28 -516 0 -516 0 3 27 3 28
133 3 132 3 0 1384 0 1385 -135 0 -135 0 0 25 0 25 380 0 380 0 0 -1410z
m1180 633 l0 -778 42 75 c76 138 166 223 310 290 167 78 433 80 593 5 80 -38
165 -121 208 -202 67 -130 67 -130 67 -816 l0 -617 135 0 135 0 0 -30 0 -30
-500 0 -500 0 0 30 0 30 125 0 125 0 0 628 c0 345 -5 661 -10 702 -16 119 -43
172 -114 218 -37 25 -50 27 -136 27 -86 0 -101 -3 -163 -32 -88 -42 -161 -116
-214 -219 -93 -180 -103 -259 -103 -851 l0 -473 125 0 125 0 0 -30 0 -30 -500
0 -500 0 0 30 0 30 130 0 130 0 0 1385 0 1385 -130 0 -130 0 0 25 0 25 375 0
375 0 0 -777z"/>
</g>
</svg>
